<svg height="100%" width="100%" id="svg" viewBox="0 0 1440 700" xmlns="http://www.w3.org/2000/svg" class="transition duration-300 ease-in-out delay-150"><path d="M 0,700 C 0,700 0,175 0,175 C 54.89256919294721,199.27020275450053 109.78513838589441,223.54040550900103 156,219 C 202.2148616141056,214.45959449099897 239.75201564936958,181.1085807184964 287,159 C 334.2479843506304,136.8914192815036 391.2067990166275,126.0252716170134 436,131 C 480.7932009833725,135.9747283829866 513.4207882841207,156.79033281345 564,166 C 614.5792117158793,175.20966718655 683.1100478468899,172.81339712918663 730,181 C 776.8899521531101,189.18660287081337 802.1390203283195,207.9560786698036 851,199 C 899.8609796716805,190.0439213301964 972.3338708398319,153.36228819159905 1028,159 C 1083.666129160168,164.63771180840095 1122.525496312353,212.59476856380024 1162,205 C 1201.474503687647,197.40523143619976 1241.5641439107562,134.25863755319995 1288,120 C 1334.4358560892438,105.74136244680007 1387.2179280446219,140.37068122340003 1440,175 C 1440,175 1440,700 1440,700 Z" stroke="none" stroke-width="0" fill="#00d08466" class="transition-all duration-300 ease-in-out delay-150"></path><path d="M 0,700 C 0,700 0,350 0,350 C 47.02621005049036,336.43473261254593 94.05242010098073,322.86946522509186 145,327 C 195.94757989901927,331.13053477490814 250.81652964656746,352.95687171217855 296,355 C 341.18347035343254,357.04312828782145 376.68146131274943,339.30304792619415 426,343 C 475.31853868725057,346.69695207380585 538.4576251024348,371.8309365830448 589,384 C 639.5423748975652,396.1690634169552 677.4880382775119,395.3732057416268 728,385 C 778.5119617224881,374.6267942583732 841.5902217875174,354.67624045044806 888,339 C 934.4097782124826,323.32375954955194 964.1510745724181,311.921832456581 1012,323 C 1059.848925427582,334.078167543419 1125.8054799228105,367.63642972322816 1172,387 C 1218.1945200771895,406.36357027677184 1244.62700573634,411.53244865050624 1286,403 C 1327.37299426366,394.46755134949376 1383.68649713183,372.2337756747469 1440,350 C 1440,350 1440,700 1440,700 Z" stroke="none" stroke-width="0" fill="#00d08488" class="transition-all duration-300 ease-in-out delay-150"></path><path d="M 0,700 C 0,700 0,525 0,525 C 32.91339977266118,560.1960004229559 65.82679954532236,595.3920008459119 123,575 C 180.17320045467764,554.6079991540881 261.6062015913717,478.6279970393085 314,464 C 366.3937984086283,449.3720029606915 389.7483940891909,496.09601099685426 428,524 C 466.2516059108091,551.9039890031457 519.4002220518648,560.9879589732744 566,545 C 612.5997779481352,529.0120410267256 652.6507177033494,487.9521531100479 695,471 C 737.3492822966506,454.0478468899521 781.996907134738,461.2034285865341 837,471 C 892.003092865262,480.7965714134659 957.3616537576991,493.2341325438157 1011,504 C 1064.638346242301,514.7658674561843 1106.5564778344656,523.8600412382034 1152,516 C 1197.4435221655344,508.13995876179655 1246.4124349044384,483.32570250337045 1295,482 C 1343.5875650955616,480.67429749662955 1391.7937825477807,502.8371487483148 1440,525 C 1440,525 1440,700 1440,700 Z" stroke="none" stroke-width="0" fill="#00d084ff" class="transition-all duration-300 ease-in-out delay-150"></path></svg>